<?xml version="1.0" encoding="UTF-8" standalone="no"?>
<svg
   xmlns:dc="http://purl.org/dc/elements/1.1/"
   xmlns:cc="http://creativecommons.org/ns#"
   xmlns:rdf="http://www.w3.org/1999/02/22-rdf-syntax-ns#"
   xmlns:svg="http://www.w3.org/2000/svg"
   xmlns="http://www.w3.org/2000/svg"
   xmlns:sodipodi="http://sodipodi.sourceforge.net/DTD/sodipodi-0.dtd"
   xmlns:inkscape="http://www.inkscape.org/namespaces/inkscape"
   width="279.96146mm"
   height="117.58381mm"
   viewBox="0 0 279.96146 117.58381"
   version="1.1"
   id="svg8"
   inkscape:version="1.0.1 (3bc2e813f5, 2020-09-07)"
   sodipodi:docname="Utopia Logo.svg">
  <defs
     id="defs2" />
  <sodipodi:namedview
     id="base"
     pagecolor="#ffffff"
     bordercolor="#666666"
     borderopacity="1.0"
     inkscape:pageopacity="0.0"
     inkscape:pageshadow="2"
     inkscape:zoom="0.98994949"
     inkscape:cx="584.35814"
     inkscape:cy="270.27597"
     inkscape:document-units="mm"
     inkscape:current-layer="layer1"
     inkscape:document-rotation="0"
     showgrid="false"
     inkscape:window-width="1920"
     inkscape:window-height="1001"
     inkscape:window-x="-9"
     inkscape:window-y="-9"
     inkscape:window-maximized="1" />
  <metadata
     id="metadata5">
    <rdf:RDF>
      <cc:Work
         rdf:about="">
        <dc:format>image/svg+xml</dc:format>
        <dc:type
           rdf:resource="http://purl.org/dc/dcmitype/StillImage" />
        <dc:title></dc:title>
      </cc:Work>
    </rdf:RDF>
  </metadata>
  <g
     inkscape:label="Layer 1"
     inkscape:groupmode="layer"
     id="layer1"
     transform="translate(6.4956756,-86.050865)">
    <rect
       style="fill:#ffeb00;fill-opacity:1;fill-rule:evenodd;stroke-width:0.264999;stroke-linecap:round;stroke-linejoin:round;paint-order:fill markers stroke"
       id="rect847"
       width="279.96146"
       height="117.58381"
       x="-6.4956756"
       y="86.050865" />
    <g
       id="g878"
       transform="translate(-0.04613703)">
      <path
         d="m 26.164713,126.93403 h 3.887081 v 21.09146 q 0,3.75276 0.158657,4.67907 0.29087,2.06639 1.348578,3.46774 1.057709,1.37759 3.252455,2.32765 2.194747,0.92632 4.415936,0.92632 1.93032,0 3.701982,-0.7363 1.771663,-0.7363 2.961586,-2.04264 1.189922,-1.30634 1.745219,-3.15897 0.396641,-1.33009 0.396641,-5.46287 v -21.09146 h 3.887081 v 21.09146 q 0,4.67907 -1.031267,7.57677 -1.004823,2.87394 -4.072179,5.01159 -3.040914,2.13765 -7.377521,2.13765 -4.706805,0 -8.065032,-2.01889 -3.358226,-2.01889 -4.495263,-5.34412 -0.713954,-2.04264 -0.713954,-7.363 z"
         style="font-style:normal;font-variant:normal;font-weight:normal;font-stretch:normal;font-size:51.3251px;line-height:1.25;font-family:'Century Gothic';-inkscape-font-specification:'Century Gothic';fill:#ffffff;fill-opacity:1;stroke:#ffffff;stroke-width:1.60391;stroke-opacity:1"
         id="path853" />
      <path
         d="m 66.608493,130.13319 v -3.55017 h 21.339281 v 3.55017 h -8.673215 v 32.96933 H 75.30815 v -32.96933 z"
         style="font-style:normal;font-variant:normal;font-weight:normal;font-stretch:normal;font-size:51.3251px;line-height:1.25;font-family:'Century Gothic';-inkscape-font-specification:'Century Gothic';fill:#ffffff;fill-opacity:1;stroke:#ffffff;stroke-width:1.63979;stroke-opacity:1"
         id="path855" />
      <path
         d="m 118.29343,126.49463 q 8.2926,0 13.87894,5.29662 5.58632,5.29662 5.58632,13.03965 0,7.67177 -5.58632,13.01589 -5.56151,5.34412 -13.58101,5.34412 -8.11881,0 -13.70514,-5.32037 -5.586333,-5.32036 -5.586333,-12.87338 0,-5.03535 2.532473,-9.3344 2.5573,-4.29904 6.95189,-6.72171 4.39458,-2.44642 9.50918,-2.44642 z m 0.17379,3.42024 q -4.04699,0 -7.6719,2.01889 -3.6249,2.01889 -5.66082,5.43912 -2.03591,3.42023 -2.03591,7.62428 0,6.22292 4.4939,10.52197 4.51872,4.27529 10.87473,4.27529 4.24562,0 7.8457,-1.97138 3.62491,-1.97139 5.63599,-5.39162 2.03591,-3.42024 2.03591,-7.60052 0,-4.15654 -2.03591,-7.50552 -2.01108,-3.37273 -5.68565,-5.39162 -3.67456,-2.01889 -7.79604,-2.01889 z"
         style="font-style:normal;font-variant:normal;font-weight:normal;font-stretch:normal;font-size:51.3251px;line-height:1.25;font-family:'Century Gothic';-inkscape-font-specification:'Century Gothic';fill:#ffffff;fill-opacity:1;stroke:#ffffff;stroke-width:1.55417;stroke-opacity:1"
         id="path857" />
      <path
         d="m 154.44342,126.93913 h 6.12868 q 5.27109,0 7.1118,0.53552 2.63554,0.75461 4.3089,3.1158 1.67336,2.33685 1.67336,5.89079 0,3.5783 -1.63153,5.91514 -1.63153,2.3125 -4.49716,3.1158 -2.09171,0.58421 -7.82298,0.58421 h -2.19627 v 16.65002 h -3.0748 z m 3.0748,3.48092 v 12.17107 l 5.20835,0.0731 q 3.15846,0 4.62265,-0.65724 1.46419,-0.68158 2.30087,-2.16644 0.83668,-1.50921 0.83668,-3.35922 0,-1.80131 -0.83668,-3.28619 -0.83668,-1.50921 -2.2172,-2.1421 -1.35961,-0.6329 -4.47625,-0.6329 z"
         style="font-style:normal;font-variant:normal;font-weight:normal;font-stretch:normal;font-size:51.3251px;line-height:1.25;font-family:'Century Gothic';-inkscape-font-specification:'Century Gothic';fill:#ffffff;fill-opacity:1;stroke:#ffffff;stroke-width:1.44414;stroke-opacity:1"
         id="path859" />
      <path
         d="m 188.95636,126.4648 h 4.08927 v 36.75593 h -4.08927 z"
         style="font-style:normal;font-variant:normal;font-weight:normal;font-stretch:normal;font-size:51.3251px;line-height:1.25;font-family:'Century Gothic';-inkscape-font-specification:'Century Gothic';fill:#ffffff;fill-opacity:1;stroke:#ffffff;stroke-width:1.68733;stroke-opacity:1"
         id="path861" />
      <path
         d="m 224.8336,126.28497 17.83101,37.1156 h -4.10686 l -6.00431,-12.21207 h -16.47938 l -5.97832,12.21207 h -4.2628 l 18.06493,-37.1156 z m -0.46786,7.87224 -6.57616,13.44843 h 13.07434 z"
         style="font-style:normal;font-variant:normal;font-weight:normal;font-stretch:normal;font-size:51.3251px;line-height:1.25;font-family:'Century Gothic';-inkscape-font-specification:'Century Gothic';fill:#ffffff;fill-opacity:1;stroke:#ffffff;stroke-width:1.639;stroke-opacity:1"
         id="path863" />
    </g>
  </g>
</svg>
